HIERARCHY
ROOT Hips
{
	OFFSET 52.947701 -11.712015 95.681801
	CHANNELS 6 Xposition Yposition Zposition Xrotation Yrotation Zrotation
	JOINT spine
	{
		OFFSET 0.000000 -0.458069 7.965683
		CHANNELS 3 Xrotation Yrotation Zrotation
		JOINT spine1
		{
			OFFSET 0.000000 -0.000001 10.243103
			CHANNELS 3 Xrotation Yrotation Zrotation
			JOINT spine2
			{
				OFFSET 0.000000 -0.000002 9.814751
				CHANNELS 3 Xrotation Yrotation Zrotation
				JOINT Neck
				{
					OFFSET 0.000000 -1.201384 25.198593
					CHANNELS 3 Xrotation Yrotation Zrotation
					JOINT Head
					{
						OFFSET 0.000000 -0.000002 7.613144
						CHANNELS 3 Xrotation Yrotation Zrotation
						End Site
						{
							OFFSET 0.000000 6.077327 18.428101
						}
					}
				}
				JOINT RightShoulder
				{
					OFFSET -4.132698 0.575449 10.599197
					CHANNELS 3 Xrotation Yrotation Zrotation
					JOINT RightArm
					{
						OFFSET 0.000000 -0.000002 13.901794
						CHANNELS 3 Xrotation Yrotation Zrotation
						JOINT RightArmRoll
						{
							OFFSET 0.000000 -0.000002 7.017883
							CHANNELS 3 Xrotation Yrotation Zrotation
							JOINT RightForeArm
							{
								OFFSET 0.000000 -0.000003 20.440598
								CHANNELS 3 Xrotation Yrotation Zrotation
								JOINT RightForeArmRoll
								{
									OFFSET 0.000000 -0.000001 7.875153
									CHANNELS 3 Xrotation Yrotation Zrotation
									JOINT RightHand
									{
										OFFSET 0.000000 -0.000003 15.803696
										CHANNELS 3 Xrotation Yrotation Zrotation
										End Site
										{
											OFFSET 0.000000 0.000000 0.100006
										}
									}
								}
							}
						}
					}
				}
				JOINT LeftShoulder
				{
					OFFSET 4.132698 0.575449 10.599197
					CHANNELS 3 Xrotation Yrotation Zrotation
					JOINT LeftArm
					{
						OFFSET 0.000000 -0.000002 13.901794
						CHANNELS 3 Xrotation Yrotation Zrotation
						JOINT LeftArmRoll
						{
							OFFSET 0.000000 -0.000002 7.017883
							CHANNELS 3 Xrotation Yrotation Zrotation
							JOINT LeftForeArm
							{
								OFFSET 0.000000 -0.000003 20.440598
								CHANNELS 3 Xrotation Yrotation Zrotation
								JOINT LeftForeArmRoll
								{
									OFFSET 0.000000 -0.000001 7.875153
									CHANNELS 3 Xrotation Yrotation Zrotation
									JOINT LeftHand
									{
										OFFSET 0.000000 -0.000003 15.803696
										CHANNELS 3 Xrotation Yrotation Zrotation
										End Site
										{
											OFFSET 0.000000 0.000000 0.100006
										}
									}
								}
							}
						}
					}
				}
			}
		}
	}
	JOINT RightUpLeg
	{
		OFFSET -7.060478 1.086100 -1.294701
		CHANNELS 3 Xrotation Yrotation Zrotation
		JOINT RightUpLegRoll
		{
			OFFSET 0.000000 -0.000003 18.530800
			CHANNELS 3 Xrotation Yrotation Zrotation
			JOINT RightLeg
			{
				OFFSET 0.000000 0.000004 -22.947601
				CHANNELS 3 Xrotation Yrotation Zrotation
				JOINT RightLegRoll
				{
					OFFSET 0.000000 -0.000004 23.022598
					CHANNELS 3 Xrotation Yrotation Zrotation
					JOINT RightFoot
					{
						OFFSET 0.000000 -0.000004 19.162498
						CHANNELS 3 Xrotation Yrotation Zrotation
						JOINT RightToeBase
						{
							OFFSET 0.000000 -0.000002 16.018799
							CHANNELS 3 Xrotation Yrotation Zrotation
							End Site
							{
								OFFSET 0.006790 0.894204 7.757812
							}
						}
					}
				}
			}
		}
	}
	JOINT LeftUpLeg
	{
		OFFSET 7.060478 1.086100 -1.294701
		CHANNELS 3 Xrotation Yrotation Zrotation
		JOINT LeftUpLegRoll
		{
			OFFSET 0.000000 -0.000003 18.530899
			CHANNELS 3 Xrotation Yrotation Zrotation
			JOINT LeftLeg
			{
				OFFSET 0.000000 -0.000004 22.947495
				CHANNELS 3 Xrotation Yrotation Zrotation
				JOINT LeftLegRoll
				{
					OFFSET 0.000000 -0.000004 23.235504
					CHANNELS 3 Xrotation Yrotation Zrotation
					JOINT LeftFoot
					{
						OFFSET 0.000000 -0.000003 18.949600
						CHANNELS 3 Xrotation Yrotation Zrotation
						JOINT LeftToeBase
						{
							OFFSET 0.000000 -0.000003 16.018799
							CHANNELS 3 Xrotation Yrotation Zrotation
							End Site
							{
								OFFSET -0.030430 0.894206 7.757812
							}
						}
					}
				}
			}
		}
	}
}
MOTION
Frames: 11
Frame Time: 0.041667
53.334297 -13.346608 95.623108 1.538603 -1.226110 3.953441 -2.904933 0.410353 -0.139755 -1.803447 0.824478 -0.266853 -0.158306 0.825133 -0.276756 40.356671 0.380487 -2.103218 -10.015971 -4.277677 -1.943734 -12.585652 -4.132404 -11.150437 -137.351443 -180.324726 -77.805116 -0.000001 -0.000001 0.000000 32.250630 17.371442 3.854865 -0.000002 -0.000006 -3.011012 -5.000158 -8.000089 0.000005 -13.785855 4.006544 13.274058 -135.387778 189.972095 83.795821 -0.000000 0.000001 -0.000000 30.394287 -17.956875 -3.172540 0.000000 -0.000035 3.005919 -5.000162 7.999921 0.000025 -0.108452 -172.816012 -0.700400 -179.999991 0.000005 -1.069001 173.405580 -2.268901 -0.633223 0.000001 -0.000003 0.163904 71.628160 6.839785 2.097259 25.750100 -7.355539 0.438871 0.130373 176.021010 1.842784 -0.000005 -0.000004 -1.062980 -3.196115 1.945492 0.133640 -0.000005 0.000001 -0.033873 69.228851 -6.921976 -2.050713 25.456957 7.355613 -0.000001 
53.341900 -13.351212 95.623604 1.541424 -1.229637 3.944395 -2.906194 0.408734 -0.138595 -1.806466 0.822072 -0.264886 -0.161329 0.822061 -0.274752 40.361015 0.405840 -2.111894 -10.019689 -4.311637 -1.946942 -12.572001 -4.193386 -11.133165 -137.338602 -180.332417 -77.828332 0.000000 0.000000 -0.000001 32.073192 17.392998 3.854312 -0.000003 -0.000006 -3.011010 -5.000154 -8.000092 0.000002 -13.784027 4.091890 13.278901 -135.386589 189.899599 83.922746 -0.000001 -0.000001 -0.000000 30.278888 -17.900734 -3.164604 0.000002 -0.000034 3.005910 -5.000163 7.999917 0.000026 -0.113077 -172.809018 -0.697301 -179.999991 0.000005 -1.069002 173.404733 -2.268897 -0.633257 0.000000 -0.000003 0.163857 71.627723 6.839762 2.096783 25.749497 -7.355546 0.438820 0.129212 176.025996 1.843495 -0.000005 -0.000005 -1.062950 -3.198902 1.948631 0.133650 -0.000005 0.000001 -0.033848 69.228625 -6.921930 -2.050619 25.456957 7.355613 -0.000001 
53.346294 -13.346510 95.630005 1.544329 -1.232934 3.935526 -2.907543 0.407028 -0.137466 -1.809665 0.819460 -0.262933 -0.164529 0.818802 -0.272761 40.364987 0.432345 -2.120620 -10.022288 -4.346025 -1.949943 -12.557135 -4.258818 -11.114454 -137.328999 -180.331297 -77.862401 0.000001 0.000000 -0.000000 31.906204 17.409158 3.852191 -0.000000 -0.000006 -3.011023 -5.000155 -8.000087 0.000005 -13.780499 4.181254 13.280986 -135.386753 189.823689 84.049965 -0.000001 0.000000 -0.000000 30.165373 -17.843625 -3.156500 0.000003 -0.000033 3.005910 -5.000164 7.999919 0.000024 -0.117702 -172.802010 -0.694380 -179.999991 0.000005 -1.069001 173.403968 -2.268895 -0.633288 0.000001 -0.000002 0.163810 71.627285 6.839738 2.096407 25.748990 -7.355540 0.438719 0.128044 176.030012 1.844095 -0.000005 -0.000005 -1.062940 -3.201539 1.951772 0.133664 -0.000006 0.000001 -0.033822 69.228407 -6.921884 -2.050522 25.456957 7.355613 -0.000000 
53.349598 -13.349411 95.628906 1.547201 -1.235951 3.926841 -2.908992 0.405225 -0.136379 -1.813034 0.816593 -0.261003 -0.167892 0.815326 -0.270790 40.368774 0.460266 -2.129433 -10.023486 -4.380906 -1.952703 -12.540852 -4.328762 -11.093897 -137.323262 -180.318797 -77.908935 -0.000001 0.000000 0.000000 31.752597 17.418456 3.848224 -0.000002 -0.000006 -3.011018 -5.000154 -8.000090 0.000004 -13.774769 4.274499 13.279835 -135.388433 189.743680 84.176761 -0.000000 0.000002 -0.000000 30.054919 -17.785543 -3.148264 0.000003 -0.000033 3.005900 -5.000164 7.999918 0.000025 -0.122167 -172.795016 -0.691692 -179.999991 0.000005 -1.069001 173.403258 -2.269881 -0.632433 0.000001 -0.000003 0.163763 71.627067 6.839710 2.095914 25.748488 -7.355546 0.438551 0.127025 176.034998 1.844547 -0.000005 -0.000005 -1.062960 -3.203976 1.954883 0.133683 -0.000006 0.000001 -0.033797 69.228270 -6.921809 -2.050418 25.456959 7.355613 -0.000001 
53.343491 -13.374413 95.626297 1.549953 -1.238619 3.918372 -2.910529 0.403310 -0.135345 -1.816543 0.813424 -0.259106 -0.171405 0.811600 -0.268848 40.372377 0.489869 -2.138361 -10.022926 -4.416351 -1.955183 -12.523061 -4.403253 -11.071182 -137.322497 -180.292364 -77.971575 -0.000001 -0.000000 0.000000 31.614938 17.419761 3.841915 -0.000002 -0.000007 -3.011020 -5.000157 -8.000090 0.000003 -13.766634 4.371420 13.274862 -135.392122 189.658985 84.303427 -0.000000 0.000001 -0.000000 29.948279 -17.726641 -3.139840 0.000004 -0.000033 3.005889 -5.000160 7.999921 0.000025 -0.126322 -172.789033 -0.689290 -179.999991 0.000005 -1.069002 173.402671 -2.269878 -0.632456 0.000000 -0.000002 0.163716 71.627053 6.839679 2.095410 25.748085 -7.355542 0.438316 0.126314 176.039001 1.844836 -0.000005 -0.000005 -1.063020 -3.206153 1.957933 0.133708 -0.000005 0.000001 -0.033772 69.228250 -6.921737 -2.050105 25.456957 7.355613 -0.000001 
53.348595 -13.371010 95.626198 1.552492 -1.240897 3.910119 -2.912172 0.401272 -0.134371 -1.820192 0.809905 -0.257248 -0.175053 0.807597 -0.266943 40.375813 0.521420 -2.147459 -10.020288 -4.452425 -1.957368 -12.503355 -4.482331 -11.046174 -137.327387 -180.249444 -78.051959 0.000000 0.000002 0.000000 31.496355 17.411568 3.832633 -0.000002 -0.000006 -3.011021 -5.000159 -8.000089 0.000002 -13.755694 4.471880 13.265492 -135.398023 189.568895 84.430243 -0.000000 0.000001 0.000000 29.846451 -17.667036 -3.131288 0.000005 -0.000034 3.005892 -5.000166 7.999922 0.000025 -0.130016 -172.783022 -0.687230 -179.999991 0.000005 -1.069001 173.402220 -2.268885 -0.632360 0.000001 -0.000003 0.163669 71.627251 6.839645 2.094992 25.747680 -7.355541 0.437971 0.126054 176.043017 1.844932 -0.000005 -0.000004 -1.063119 -3.208030 1.960895 0.133737 -0.000006 0.000001 -0.033747 69.228236 -6.921701 -2.049801 25.456959 7.355613 -0.000001 
53.351795 -13.365213 95.622803 1.554719 -1.242735 3.902106 -2.913900 0.399098 -0.133471 -1.823960 0.805990 -0.255439 -0.178823 0.803285 -0.265084 40.379279 0.555187 -2.156746 -10.015238 -4.489214 -1.959229 -12.481850 -4.566041 -11.018376 -137.339108 -180.187535 -78.151824 -0.000001 0.000002 -0.000001 31.399438 17.392776 3.820086 -0.000000 -0.000007 -3.011019 -5.000157 -8.000090 0.000004 -13.741649 4.575685 13.251227 -135.406438 189.472658 84.554409 -0.000000 0.000000 0.000000 29.750279 -17.606780 -3.122776 0.000005 -0.000032 3.005880 -5.000166 7.999921 0.000024 -0.133090 -172.778009 -0.685558 -179.999991 0.000005 -1.068004 173.401878 -2.268884 -0.632374 0.000001 -0.000002 0.163622 71.627777 6.839633 2.094459 25.747274 -7.355540 0.437528 0.126412 176.045995 1.844814 -0.000005 -0.000004 -1.063259 -3.209537 1.963747 0.133773 -0.000005 0.000001 -0.033721 69.228209 -6.921631 -2.049590 25.456959 7.355612 -0.000001 
53.353695 -13.371608 95.623810 1.556529 -1.244063 3.894352 -2.915720 0.396777 -0.132654 -1.827839 0.801627 -0.253689 -0.182702 0.798634 -0.263278 40.382889 0.591432 -2.166291 -10.007456 -4.526768 -1.960717 -12.458037 -4.654425 -10.987668 -137.358601 -180.104111 -78.273865 -0.000000 0.000002 0.000000 31.327086 17.361946 3.803726 -0.000003 -0.000006 -3.011021 -5.000157 -8.000089 0.000003 -13.724200 4.682664 13.231483 -135.417735 189.369686 84.677250 -0.000000 0.000002 0.000000 29.660950 -17.545965 -3.114225 0.000002 -0.000034 3.005879 -5.000170 7.999919 0.000025 -0.135392 -172.774020 -0.684333 -179.999991 0.000005 -1.068004 173.401714 -2.267892 -0.632265 0.000001 -0.000002 0.163575 71.628727 6.839581 2.093991 25.746975 -7.355541 0.436949 0.127535 176.048017 1.844442 -0.000005 -0.000005 -1.063460 -3.210622 1.966451 0.133813 -0.000006 0.000001 -0.033696 69.228304 -6.921565 -2.049171 25.456959 7.355614 -0.000001 
53.355495 -13.391708 95.623909 1.558329 -1.244921 3.886665 -2.917756 0.394266 -0.131924 -1.832067 0.796759 -0.252019 -0.186935 0.793564 -0.261549 40.387049 0.630763 -2.176068 -9.997646 -4.565596 -1.961741 -12.433431 -4.752794 -10.956831 -137.387192 -180.005333 -78.420899 -0.000000 -0.000001 -0.000001 31.284346 17.317362 3.782682 -0.000002 -0.000006 -3.011030 -5.000157 -8.000089 0.000003 -13.702858 4.793565 13.205174 -135.432788 189.259337 84.797946 -0.000000 0.000001 0.000000 29.580200 -17.484874 -3.105749 0.000005 -0.000034 3.005870 -5.000168 7.999922 0.000025 -0.137515 -172.770031 -0.683667 -179.999991 0.000005 -1.068004 173.401564 -2.266901 -0.632157 0.000001 -0.000002 0.163528 71.629997 6.839557 2.093510 25.746774 -7.355543 0.436209 0.129020 176.051008 1.843905 -0.000005 -0.000005 -1.063710 -3.211327 1.969056 0.133859 -0.000006 0.000001 -0.033671 69.228393 -6.921536 -2.048760 25.456957 7.355613 -0.000000 
53.357796 -13.391708 95.621506 1.560509 -1.245360 3.878894 -2.920088 0.391555 -0.131274 -1.836855 0.791391 -0.250433 -0.191720 0.788053 -0.259899 40.392356 0.673313 -2.186037 -9.986691 -4.605969 -1.962237 -12.409112 -4.865004 -10.928362 -137.424895 -179.898700 -78.589946 0.000001 0.000000 -0.000001 31.271639 17.259188 3.757067 -0.000002 -0.000005 -3.011030 -5.000158 -8.000089 0.000001 -13.677343 4.909166 13.171938 -135.451995 189.142131 84.915876 -0.000000 -0.000001 -0.000000 29.508569 -17.423628 -3.097222 0.000005 -0.000033 3.005871 -5.000168 7.999921 0.000025 -0.140083 -172.767012 -0.683584 -179.999991 0.000005 -1.068004 173.401332 -2.265910 -0.633049 0.000001 -0.000002 0.163481 71.631705 6.839548 2.092903 25.746571 -7.355544 0.435270 0.130378 176.052019 1.843244 -0.000005 -0.000005 -1.064020 -3.211743 1.971620 0.133911 -0.000006 0.000001 -0.033646 69.228680 -6.921445 -2.048324 25.456959 7.355614 -0.000001 
53.363197 -13.386410 95.621300 1.562990 -1.245438 3.871109 -2.922665 0.388668 -0.130692 -1.842103 0.785587 -0.248917 -0.196968 0.782152 -0.258316 40.398428 0.718647 -2.196173 -9.974567 -4.647651 -1.962278 -12.384758 -4.988880 -10.901289 -137.471204 -179.783761 -78.779668 0.000000 0.000000 0.000000 31.284698 17.189008 3.727483 -0.000003 -0.000006 -3.011032 -5.000157 -8.000087 0.000002 -13.648253 5.029233 13.132534 -135.474794 189.018682 85.031839 -0.000001 0.000001 -0.000000 29.444426 -17.362068 -3.088904 0.000003 -0.000035 3.005861 -5.000165 7.999920 0.000025 -0.142963 -172.765032 -0.683995 -179.999991 0.000005 -1.068004 173.401018 -2.263913 -0.632830 -0.000000 -0.000003 0.163434 71.633726 6.839507 2.092273 25.746468 -7.355543 0.434162 0.131665 176.054013 1.842490 -0.000004 -0.000005 -1.064380 -3.211878 1.974166 0.133969 -0.000006 0.000002 -0.033620 69.228981 -6.921390 -2.047797 25.456957 7.355614 -0.000001 
